<svg width="1312" height="426" viewBox="0 0 1312 426" fill="none" xmlns="http://www.w3.org/2000/svg">
<rect x="0.25" y="0.25" width="1311.5" height="425.5" rx="19.75" stroke="black" stroke-width="0.5"/>
<path d="M649.737 178.625C649.737 182.769 648.091 186.743 645.161 189.674C642.231 192.604 638.257 194.25 634.113 194.25C629.968 194.25 625.994 192.604 623.064 189.674C620.134 186.743 618.488 182.769 618.488 178.625C618.488 174.481 620.134 170.507 623.064 167.576C625.994 164.646 629.968 163 634.113 163C638.257 163 642.231 164.646 645.161 167.576C648.091 170.507 649.737 174.481 649.737 178.625ZM676.144 203.956C675.558 203.663 674.894 203.561 674.247 203.665C673.6 203.769 673.002 204.075 672.537 204.537L649.35 233.975L632.725 216.65C632.125 216.25 631.405 216.071 630.687 216.141C629.969 216.212 629.298 216.529 628.787 217.037L606 244.25V256.75C606 258.408 606.658 259.997 607.831 261.169C609.003 262.342 610.592 263 612.25 263H699.75C700.571 263 701.383 262.838 702.142 262.524C702.9 262.21 703.589 261.75 704.169 261.169C704.75 260.589 705.21 259.9 705.524 259.142C705.838 258.383 706 257.571 706 256.75V228.625L676.144 203.956Z" fill="#848484"/>
</svg>
