<svg width="187" height="187" viewBox="0 0 187 187" fill="none" xmlns="http://www.w3.org/2000/svg">
<path d="M71.1564 82.454C71.2444 82.454 71.3224 82.488 71.3904 82.556L72.0264 83.246C71.6744 83.682 71.2404 84.016 70.7244 84.248C70.2124 84.48 69.5964 84.596 68.8764 84.596C68.2324 84.596 67.6524 84.486 67.1364 84.266C66.6244 84.046 66.1864 83.74 65.8224 83.348C65.4584 82.956 65.1784 82.488 64.9824 81.944C64.7904 81.4 64.6944 80.806 64.6944 80.162C64.6944 79.51 64.7984 78.914 65.0064 78.374C65.2144 77.83 65.5064 77.362 65.8824 76.97C66.2624 76.578 66.7144 76.274 67.2384 76.058C67.7624 75.838 68.3424 75.728 68.9784 75.728C69.6104 75.728 70.1704 75.832 70.6584 76.04C71.1504 76.248 71.5684 76.52 71.9124 76.856L71.3724 77.606C71.3404 77.654 71.2984 77.696 71.2464 77.732C71.1984 77.768 71.1304 77.786 71.0424 77.786C70.9824 77.786 70.9204 77.77 70.8564 77.738C70.7924 77.702 70.7224 77.66 70.6464 77.612C70.5704 77.56 70.4824 77.504 70.3824 77.444C70.2824 77.384 70.1664 77.33 70.0344 77.282C69.9024 77.23 69.7484 77.188 69.5724 77.156C69.4004 77.12 69.2004 77.102 68.9724 77.102C68.5844 77.102 68.2284 77.172 67.9044 77.312C67.5844 77.448 67.3084 77.648 67.0764 77.912C66.8444 78.172 66.6644 78.492 66.5364 78.872C66.4084 79.248 66.3444 79.678 66.3444 80.162C66.3444 80.65 66.4124 81.084 66.5484 81.464C66.6884 81.844 66.8764 82.164 67.1124 82.424C67.3484 82.684 67.6264 82.884 67.9464 83.024C68.2664 83.16 68.6104 83.228 68.9784 83.228C69.1984 83.228 69.3964 83.216 69.5724 83.192C69.7524 83.168 69.9164 83.13 70.0644 83.078C70.2164 83.026 70.3584 82.96 70.4904 82.88C70.6264 82.796 70.7604 82.694 70.8924 82.574C70.9324 82.538 70.9744 82.51 71.0184 82.49C71.0624 82.466 71.1084 82.454 71.1564 82.454ZM75.4931 78.248C75.9491 78.248 76.3631 78.322 76.7351 78.47C77.1111 78.618 77.4311 78.828 77.6951 79.1C77.9631 79.372 78.1691 79.704 78.3131 80.096C78.4571 80.488 78.5291 80.926 78.5291 81.41C78.5291 81.898 78.4571 82.338 78.3131 82.73C78.1691 83.122 77.9631 83.456 77.6951 83.732C77.4311 84.008 77.1111 84.22 76.7351 84.368C76.3631 84.516 75.9491 84.59 75.4931 84.59C75.0331 84.59 74.6151 84.516 74.2391 84.368C73.8631 84.22 73.5411 84.008 73.2731 83.732C73.0091 83.456 72.8031 83.122 72.6551 82.73C72.5111 82.338 72.4391 81.898 72.4391 81.41C72.4391 80.926 72.5111 80.488 72.6551 80.096C72.8031 79.704 73.0091 79.372 73.2731 79.1C73.5411 78.828 73.8631 78.618 74.2391 78.47C74.6151 78.322 75.0331 78.248 75.4931 78.248ZM75.4931 83.45C76.0051 83.45 76.3831 83.278 76.6271 82.934C76.8751 82.59 76.9991 82.086 76.9991 81.422C76.9991 80.758 76.8751 80.252 76.6271 79.904C76.3831 79.556 76.0051 79.382 75.4931 79.382C74.9731 79.382 74.5871 79.558 74.3351 79.91C74.0871 80.258 73.9631 80.762 73.9631 81.422C73.9631 82.082 74.0871 82.586 74.3351 82.934C74.5871 83.278 74.9731 83.45 75.4931 83.45ZM79.6597 84.5V78.344H80.5657C80.7577 78.344 80.8837 78.434 80.9437 78.614L81.0397 79.07C81.1477 78.95 81.2597 78.84 81.3757 78.74C81.4957 78.64 81.6217 78.554 81.7537 78.482C81.8897 78.41 82.0337 78.354 82.1857 78.314C82.3417 78.27 82.5117 78.248 82.6957 78.248C83.0837 78.248 83.4017 78.354 83.6497 78.566C83.9017 78.774 84.0897 79.052 84.2137 79.4C84.3097 79.196 84.4297 79.022 84.5737 78.878C84.7177 78.73 84.8757 78.61 85.0477 78.518C85.2197 78.426 85.4017 78.358 85.5937 78.314C85.7897 78.27 85.9857 78.248 86.1817 78.248C86.5217 78.248 86.8237 78.3 87.0877 78.404C87.3517 78.508 87.5737 78.66 87.7537 78.86C87.9337 79.06 88.0697 79.304 88.1617 79.592C88.2577 79.88 88.3057 80.21 88.3057 80.582V84.5H86.8237V80.582C86.8237 80.19 86.7377 79.896 86.5657 79.7C86.3937 79.5 86.1417 79.4 85.8097 79.4C85.6577 79.4 85.5157 79.426 85.3837 79.478C85.2557 79.53 85.1417 79.606 85.0417 79.706C84.9457 79.802 84.8697 79.924 84.8137 80.072C84.7577 80.22 84.7297 80.39 84.7297 80.582V84.5H83.2417V80.582C83.2417 80.17 83.1577 79.87 82.9897 79.682C82.8257 79.494 82.5837 79.4 82.2637 79.4C82.0477 79.4 81.8457 79.454 81.6577 79.562C81.4737 79.666 81.3017 79.81 81.1417 79.994V84.5H79.6597ZM91.1964 82.904C91.3644 83.108 91.5464 83.252 91.7424 83.336C91.9424 83.42 92.1584 83.462 92.3904 83.462C92.6144 83.462 92.8164 83.42 92.9964 83.336C93.1764 83.252 93.3284 83.124 93.4524 82.952C93.5804 82.78 93.6784 82.564 93.7464 82.304C93.8144 82.04 93.8484 81.73 93.8484 81.374C93.8484 81.014 93.8184 80.71 93.7584 80.462C93.7024 80.21 93.6204 80.006 93.5124 79.85C93.4044 79.694 93.2724 79.58 93.1164 79.508C92.9644 79.436 92.7904 79.4 92.5944 79.4C92.2864 79.4 92.0244 79.466 91.8084 79.598C91.5924 79.726 91.3884 79.908 91.1964 80.144V82.904ZM91.1184 79.184C91.3704 78.9 91.6564 78.67 91.9764 78.494C92.2964 78.318 92.6724 78.23 93.1044 78.23C93.4404 78.23 93.7464 78.3 94.0224 78.44C94.3024 78.58 94.5424 78.784 94.7424 79.052C94.9464 79.316 95.1024 79.644 95.2104 80.036C95.3224 80.424 95.3784 80.87 95.3784 81.374C95.3784 81.834 95.3164 82.26 95.1924 82.652C95.0684 83.044 94.8904 83.384 94.6584 83.672C94.4304 83.96 94.1524 84.186 93.8244 84.35C93.5004 84.51 93.1364 84.59 92.7324 84.59C92.3884 84.59 92.0944 84.538 91.8504 84.434C91.6064 84.326 91.3884 84.178 91.1964 83.99V86.51H89.7144V78.344H90.6204C90.8124 78.344 90.9384 78.434 90.9984 78.614L91.1184 79.184ZM98.0347 75.584V84.5H96.5527V75.584H98.0347ZM103.477 80.714C103.477 80.522 103.449 80.342 103.393 80.174C103.341 80.002 103.261 79.852 103.153 79.724C103.045 79.596 102.907 79.496 102.739 79.424C102.575 79.348 102.383 79.31 102.163 79.31C101.735 79.31 101.397 79.432 101.149 79.676C100.905 79.92 100.749 80.266 100.681 80.714H103.477ZM100.651 81.608C100.675 81.924 100.731 82.198 100.819 82.43C100.907 82.658 101.023 82.848 101.167 83C101.311 83.148 101.481 83.26 101.677 83.336C101.877 83.408 102.097 83.444 102.337 83.444C102.577 83.444 102.783 83.416 102.955 83.36C103.131 83.304 103.283 83.242 103.411 83.174C103.543 83.106 103.657 83.044 103.753 82.988C103.853 82.932 103.949 82.904 104.041 82.904C104.165 82.904 104.257 82.95 104.317 83.042L104.743 83.582C104.579 83.774 104.395 83.936 104.191 84.068C103.987 84.196 103.773 84.3 103.549 84.38C103.329 84.456 103.103 84.51 102.871 84.542C102.643 84.574 102.421 84.59 102.205 84.59C101.777 84.59 101.379 84.52 101.011 84.38C100.643 84.236 100.323 84.026 100.051 83.75C99.7793 83.47 99.5653 83.126 99.4093 82.718C99.2533 82.306 99.1753 81.83 99.1753 81.29C99.1753 80.87 99.2433 80.476 99.3793 80.108C99.5153 79.736 99.7093 79.414 99.9613 79.142C100.217 78.866 100.527 78.648 100.891 78.488C101.259 78.328 101.673 78.248 102.133 78.248C102.521 78.248 102.879 78.31 103.207 78.434C103.535 78.558 103.817 78.74 104.053 78.98C104.289 79.216 104.473 79.508 104.605 79.856C104.741 80.2 104.809 80.594 104.809 81.038C104.809 81.262 104.785 81.414 104.737 81.494C104.689 81.57 104.597 81.608 104.461 81.608H100.651ZM107.915 84.596C107.379 84.596 106.967 84.446 106.679 84.146C106.395 83.842 106.253 83.424 106.253 82.892V79.454H105.623C105.543 79.454 105.475 79.428 105.419 79.376C105.363 79.324 105.335 79.246 105.335 79.142V78.554L106.325 78.392L106.637 76.712C106.657 76.632 106.695 76.57 106.751 76.526C106.807 76.482 106.879 76.46 106.967 76.46H107.735V78.398H109.379V79.454H107.735V82.79C107.735 82.982 107.781 83.132 107.873 83.24C107.969 83.348 108.099 83.402 108.263 83.402C108.355 83.402 108.431 83.392 108.491 83.372C108.555 83.348 108.609 83.324 108.653 83.3C108.701 83.276 108.743 83.254 108.779 83.234C108.815 83.21 108.851 83.198 108.887 83.198C108.931 83.198 108.967 83.21 108.995 83.234C109.023 83.254 109.053 83.286 109.085 83.33L109.529 84.05C109.313 84.23 109.065 84.366 108.785 84.458C108.505 84.55 108.215 84.596 107.915 84.596ZM114.247 80.714C114.247 80.522 114.219 80.342 114.163 80.174C114.111 80.002 114.031 79.852 113.923 79.724C113.815 79.596 113.677 79.496 113.509 79.424C113.345 79.348 113.153 79.31 112.933 79.31C112.505 79.31 112.167 79.432 111.919 79.676C111.675 79.92 111.519 80.266 111.451 80.714H114.247ZM111.421 81.608C111.445 81.924 111.501 82.198 111.589 82.43C111.677 82.658 111.793 82.848 111.937 83C112.081 83.148 112.251 83.26 112.447 83.336C112.647 83.408 112.867 83.444 113.107 83.444C113.347 83.444 113.553 83.416 113.725 83.36C113.901 83.304 114.053 83.242 114.181 83.174C114.313 83.106 114.427 83.044 114.523 82.988C114.623 82.932 114.719 82.904 114.811 82.904C114.935 82.904 115.027 82.95 115.087 83.042L115.513 83.582C115.349 83.774 115.165 83.936 114.961 84.068C114.757 84.196 114.543 84.3 114.319 84.38C114.099 84.456 113.873 84.51 113.641 84.542C113.413 84.574 113.191 84.59 112.975 84.59C112.547 84.59 112.149 84.52 111.781 84.38C111.413 84.236 111.093 84.026 110.821 83.75C110.549 83.47 110.335 83.126 110.179 82.718C110.023 82.306 109.945 81.83 109.945 81.29C109.945 80.87 110.013 80.476 110.149 80.108C110.285 79.736 110.479 79.414 110.731 79.142C110.987 78.866 111.297 78.648 111.661 78.488C112.029 78.328 112.443 78.248 112.903 78.248C113.291 78.248 113.649 78.31 113.977 78.434C114.305 78.558 114.587 78.74 114.823 78.98C115.059 79.216 115.243 79.508 115.375 79.856C115.511 80.2 115.579 80.594 115.579 81.038C115.579 81.262 115.555 81.414 115.507 81.494C115.459 81.57 115.367 81.608 115.231 81.608H111.421ZM120.555 79.916C120.387 79.712 120.203 79.568 120.003 79.484C119.807 79.4 119.595 79.358 119.367 79.358C119.143 79.358 118.941 79.4 118.761 79.484C118.581 79.568 118.427 79.696 118.299 79.868C118.171 80.036 118.073 80.252 118.005 80.516C117.937 80.776 117.903 81.084 117.903 81.44C117.903 81.8 117.931 82.106 117.987 82.358C118.047 82.606 118.131 82.81 118.239 82.97C118.347 83.126 118.479 83.24 118.635 83.312C118.791 83.38 118.965 83.414 119.157 83.414C119.465 83.414 119.727 83.35 119.943 83.222C120.159 83.094 120.363 82.912 120.555 82.676V79.916ZM122.037 75.584V84.5H121.131C120.935 84.5 120.811 84.41 120.759 84.23L120.633 83.636C120.385 83.92 120.099 84.15 119.775 84.326C119.455 84.502 119.081 84.59 118.653 84.59C118.317 84.59 118.009 84.52 117.729 84.38C117.449 84.24 117.207 84.038 117.003 83.774C116.803 83.506 116.647 83.176 116.535 82.784C116.427 82.392 116.373 81.944 116.373 81.44C116.373 80.984 116.435 80.56 116.559 80.168C116.683 79.776 116.861 79.436 117.093 79.148C117.325 78.86 117.603 78.636 117.927 78.476C118.251 78.312 118.615 78.23 119.019 78.23C119.363 78.23 119.657 78.284 119.901 78.392C120.145 78.5 120.363 78.646 120.555 78.83V75.584H122.037Z" fill="#737373"/>
<path d="M85.2578 96.2812V97.7949L79.7598 110.5H76.791L82.2891 98.4785H75.209V96.2812H85.2578ZM96.7422 96.2812V97.7949L91.2441 110.5H88.2754L93.7734 98.4785H86.6934V96.2812H96.7422ZM98.5293 99.7676V99.0156C98.5293 98.4753 98.6465 97.9837 98.8809 97.541C99.1152 97.0983 99.4603 96.7435 99.916 96.4766C100.372 96.2096 100.932 96.0762 101.596 96.0762C102.279 96.0762 102.849 96.2096 103.305 96.4766C103.767 96.7435 104.112 97.0983 104.34 97.541C104.574 97.9837 104.691 98.4753 104.691 99.0156V99.7676C104.691 100.295 104.574 100.78 104.34 101.223C104.112 101.665 103.77 102.02 103.314 102.287C102.859 102.554 102.296 102.688 101.625 102.688C100.948 102.688 100.378 102.554 99.916 102.287C99.4603 102.02 99.1152 101.665 98.8809 101.223C98.6465 100.78 98.5293 100.295 98.5293 99.7676ZM100.395 99.0156V99.7676C100.395 99.9954 100.437 100.214 100.521 100.422C100.613 100.624 100.749 100.79 100.932 100.92C101.12 101.044 101.348 101.105 101.615 101.105C101.895 101.105 102.123 101.044 102.299 100.92C102.475 100.79 102.605 100.624 102.689 100.422C102.774 100.214 102.816 99.9954 102.816 99.7676V99.0156C102.816 98.7747 102.771 98.5534 102.68 98.3516C102.595 98.1432 102.462 97.9772 102.279 97.8535C102.104 97.7233 101.876 97.6582 101.596 97.6582C101.335 97.6582 101.114 97.7233 100.932 97.8535C100.749 97.9772 100.613 98.1432 100.521 98.3516C100.437 98.5534 100.395 98.7747 100.395 99.0156ZM105.326 107.766V107.014C105.326 106.48 105.443 105.992 105.678 105.549C105.919 105.106 106.267 104.751 106.723 104.484C107.185 104.217 107.751 104.084 108.422 104.084C109.099 104.084 109.665 104.217 110.121 104.484C110.577 104.751 110.922 105.106 111.156 105.549C111.391 105.992 111.508 106.48 111.508 107.014V107.766C111.508 108.299 111.391 108.788 111.156 109.23C110.928 109.673 110.587 110.028 110.131 110.295C109.675 110.562 109.112 110.695 108.441 110.695C107.764 110.695 107.195 110.562 106.732 110.295C106.27 110.028 105.919 109.673 105.678 109.23C105.443 108.788 105.326 108.299 105.326 107.766ZM107.201 107.014V107.766C107.201 108 107.253 108.221 107.357 108.43C107.462 108.638 107.605 108.804 107.787 108.928C107.976 109.051 108.194 109.113 108.441 109.113C108.754 109.113 108.998 109.051 109.174 108.928C109.35 108.804 109.47 108.638 109.535 108.43C109.607 108.221 109.643 108 109.643 107.766V107.014C109.643 106.779 109.597 106.561 109.506 106.359C109.415 106.151 109.278 105.985 109.096 105.861C108.92 105.731 108.695 105.666 108.422 105.666C108.148 105.666 107.921 105.731 107.738 105.861C107.562 105.985 107.429 106.151 107.338 106.359C107.247 106.561 107.201 106.779 107.201 107.014ZM109.115 98.3125L102.172 109.426L100.805 108.703L107.748 97.5898L109.115 98.3125Z" fill="#0A0A0A"/>
<path d="M187 93.5C187 145.139 145.139 187 93.5 187C41.8614 187 0 145.139 0 93.5C0 41.8614 41.8614 0 93.5 0C145.139 0 187 41.8614 187 93.5ZM18.7 93.5C18.7 134.811 52.1891 168.3 93.5 168.3C134.811 168.3 168.3 134.811 168.3 93.5C168.3 52.1891 134.811 18.7 93.5 18.7C52.1891 18.7 18.7 52.1891 18.7 93.5Z" fill="#F5F5F5"/>
<path d="M93.5 0C111.993 2.20521e-07 130.07 5.48368 145.446 15.7576C160.822 26.0315 172.806 40.6342 179.883 57.7191C186.96 74.804 188.811 93.6037 185.203 111.741C181.596 129.878 172.691 146.538 159.614 159.614C146.538 172.691 129.878 181.596 111.741 185.203C93.6037 188.811 74.804 186.96 57.7191 179.883C40.6342 172.806 26.0315 160.822 15.7576 145.446C5.48368 130.07 -4.41043e-07 111.993 0 93.5H18.7C18.7 108.294 23.0869 122.756 31.3061 135.057C39.5252 147.357 51.2074 156.945 64.8753 162.606C78.5432 168.268 93.583 169.749 108.093 166.863C122.603 163.977 135.931 156.853 146.392 146.392C156.853 135.931 163.977 122.603 166.863 108.093C169.749 93.583 168.268 78.5432 162.606 64.8753C156.945 51.2074 147.357 39.5252 135.057 31.3061C122.756 23.0869 108.294 18.7 93.5 18.7V0Z" fill="url(#paint0_linear_402_430)"/>
<defs>
<linearGradient id="paint0_linear_402_430" x1="-3.14794e-07" y1="94.3904" x2="187" y2="94.3904" gradientUnits="userSpaceOnUse">
<stop stop-color="#A855F7"/>
<stop offset="1" stop-color="#3B82F6"/>
</linearGradient>
</defs>
</svg>
