<svg width="18" height="18" viewBox="0 0 18 18" fill="none" xmlns="http://www.w3.org/2000/svg">
<path d="M9 15.6746L12.506 11.9623C14.4424 9.91208 14.4424 6.58794 12.506 4.53769C10.5697 2.48744 7.43028 2.48744 5.49393 4.53769C3.55758 6.58794 3.55758 9.91208 5.49393 11.9623L9 15.6746ZM9 17.7959L4.49219 13.023C2.0026 10.3869 2.0026 6.11307 4.49219 3.47703C6.98179 0.84099 11.0182 0.84099 13.5078 3.47703C15.9974 6.11307 15.9974 10.3869 13.5078 13.023L9 17.7959ZM9 9.75C9.78242 9.75 10.4167 9.07845 10.4167 8.25C10.4167 7.42157 9.78242 6.75 9 6.75C8.21757 6.75 7.58333 7.42157 7.58333 8.25C7.58333 9.07845 8.21757 9.75 9 9.75ZM9 11.25C7.43519 11.25 6.16667 9.90683 6.16667 8.25C6.16667 6.59315 7.43519 5.25 9 5.25C10.5648 5.25 11.8333 6.59315 11.8333 8.25C11.8333 9.90683 10.5648 11.25 9 11.25Z" fill="black"/>
</svg>
