<svg width="17" height="18" viewBox="0 0 17 18" fill="none" xmlns="http://www.w3.org/2000/svg">
<path d="M6.49992 0.75V2.25H10.4999V0.75H11.8333V2.25H14.4999C14.8681 2.25 15.1666 2.58579 15.1666 3V15C15.1666 15.4142 14.8681 15.75 14.4999 15.75H2.49992C2.13173 15.75 1.83325 15.4142 1.83325 15V3C1.83325 2.58579 2.13173 2.25 2.49992 2.25H5.16659V0.75H6.49992ZM13.8333 8.25H3.16659V14.25H13.8333V8.25ZM7.83325 9.75V12.75H4.49992V9.75H7.83325ZM5.16659 3.75H3.16659V6.75H13.8333V3.75H11.8333V5.25H10.4999V3.75H6.49992V5.25H5.16659V3.75Z" fill="black"/>
</svg>
