<svg width="18" height="19" viewBox="0 0 18 19" fill="none" xmlns="http://www.w3.org/2000/svg">
<path d="M9.26067 0.747513C9.19089 0.680754 9.09803 0.643494 9.00146 0.643494C8.90488 0.643494 8.81203 0.680754 8.74224 0.747513L0.112549 8.99142C0.0758996 9.02648 0.0467427 9.06861 0.0268419 9.11526C0.00694111 9.16191 -0.00328998 9.21211 -0.00323248 9.26283L-0.00463867 17C-0.00463867 17.3978 0.153397 17.7794 0.434701 18.0607C0.716006 18.342 1.09754 18.5 1.49536 18.5H6.00005C6.19896 18.5 6.38973 18.421 6.53038 18.2803C6.67103 18.1397 6.75005 17.9489 6.75005 17.75V11.375C6.75005 11.2756 6.78956 11.1802 6.85988 11.1098C6.93021 11.0395 7.02559 11 7.12505 11H10.875C10.9745 11 11.0699 11.0395 11.1402 11.1098C11.2105 11.1802 11.25 11.2756 11.25 11.375V17.75C11.25 17.9489 11.3291 18.1397 11.4697 18.2803C11.6104 18.421 11.8011 18.5 12 18.5H16.5029C16.9007 18.5 17.2822 18.342 17.5635 18.0607C17.8448 17.7794 18.0029 17.3978 18.0029 17V9.26283C18.0029 9.21211 17.9927 9.16191 17.9728 9.11526C17.9529 9.06861 17.9237 9.02648 17.8871 8.99142L9.26067 0.747513Z" fill="#E79E03"/>
</svg>
