<svg width="19" height="28" viewBox="0 0 19 28" fill="none" xmlns="http://www.w3.org/2000/svg">
<path d="M9.48047 0.875C4.31133 0.875 0.105469 4.89746 0.105469 9.83984C0.105469 12.1936 1.17832 15.3236 3.29414 19.1434C4.99336 22.2102 6.95918 24.9834 7.98164 26.3633C8.15441 26.5991 8.38031 26.7908 8.64102 26.923C8.90174 27.0551 9.18993 27.124 9.48223 27.124C9.77453 27.124 10.0627 27.0551 10.3234 26.923C10.5841 26.7908 10.81 26.5991 10.9828 26.3633C12.0035 24.9834 13.9711 22.2102 15.6703 19.1434C17.7826 15.3248 18.8555 12.1947 18.8555 9.83984C18.8555 4.89746 14.6496 0.875 9.48047 0.875ZM9.48047 14C8.73879 14 8.01377 13.7801 7.39708 13.368C6.7804 12.956 6.29975 12.3703 6.01592 11.6851C5.73209 10.9998 5.65783 10.2458 5.80252 9.51841C5.94722 8.79098 6.30437 8.1228 6.82882 7.59835C7.35327 7.0739 8.02145 6.71675 8.74888 6.57206C9.47631 6.42736 10.2303 6.50162 10.9155 6.78545C11.6008 7.06928 12.1864 7.54993 12.5985 8.16661C13.0105 8.7833 13.2305 9.50832 13.2305 10.25C13.2294 11.2442 12.8339 12.1974 12.1309 12.9005C11.4279 13.6035 10.4747 13.9989 9.48047 14Z" fill="#FDB833"/>
</svg>
