<svg width="21" height="20" viewBox="0 0 21 20" fill="none" xmlns="http://www.w3.org/2000/svg">
<path d="M4 0V20H0V0H4ZM6 0H16.005C17.107 0 18 0.898 18 1.99V18.01C18 19.109 17.107 20 16.005 20H6V0ZM19 4H21V8H19V4ZM19 10H21V14H19V10ZM12 10C12.5304 10 13.0391 9.78929 13.4142 9.41421C13.7893 9.03914 14 8.53043 14 8C14 7.46957 13.7893 6.96086 13.4142 6.58579C13.0391 6.21071 12.5304 6 12 6C11.4696 6 10.9609 6.21071 10.5858 6.58579C10.2107 6.96086 10 7.46957 10 8C10 8.53043 10.2107 9.03914 10.5858 9.41421C10.9609 9.78929 11.4696 10 12 10ZM9 14H15C15 13.2044 14.6839 12.4413 14.1213 11.8787C13.5587 11.3161 12.7956 11 12 11C11.2044 11 10.4413 11.3161 9.87868 11.8787C9.31607 12.4413 9 13.2044 9 14Z" fill="#E79E03"/>
</svg>
