<svg width="436" height="288" viewBox="0 0 436 288" fill="none" xmlns="http://www.w3.org/2000/svg">
<rect width="436" height="288" fill="black" fill-opacity="0.2"/>
<path d="M211.737 109.625C211.737 113.769 210.091 117.743 207.161 120.674C204.231 123.604 200.257 125.25 196.113 125.25C191.968 125.25 187.994 123.604 185.064 120.674C182.134 117.743 180.488 113.769 180.488 109.625C180.488 105.481 182.134 101.507 185.064 98.5765C187.994 95.6462 191.968 94 196.113 94C200.257 94 204.231 95.6462 207.161 98.5765C210.091 101.507 211.737 105.481 211.737 109.625ZM238.144 134.956C237.558 134.663 236.894 134.561 236.247 134.665C235.6 134.769 235.002 135.075 234.537 135.537L211.35 164.975L194.725 147.65C194.125 147.25 193.405 147.071 192.687 147.141C191.969 147.212 191.298 147.529 190.787 148.037L168 175.25V187.75C168 189.408 168.658 190.997 169.831 192.169C171.003 193.342 172.592 194 174.25 194H261.75C262.571 194 263.383 193.838 264.142 193.524C264.9 193.21 265.589 192.75 266.169 192.169C266.75 191.589 267.21 190.9 267.524 190.142C267.838 189.383 268 188.571 268 187.75V159.625L238.144 134.956Z" fill="#848484"/>
</svg>
