<svg width="30" height="31" viewBox="0 0 30 31" fill="none" xmlns="http://www.w3.org/2000/svg">
<path d="M10.5 3.5V0.5H7.5V3.5H1.5C0.67158 3.5 0 4.17158 0 5V29C0 29.8284 0.67158 30.5 1.5 30.5H28.5C29.3284 30.5 30 29.8284 30 29V5C30 4.17158 29.3284 3.5 28.5 3.5H22.5V0.5H19.5V3.5H10.5ZM3 11H27V27.5H3V11ZM11.8178 13.9465L14.9998 17.1287L18.1817 13.9465L20.3031 16.0677L17.1211 19.25L20.3029 22.4317L18.1818 24.5531L14.9998 21.3713L11.8177 24.5531L9.69648 22.4317L12.8784 19.25L9.69639 16.0677L11.8178 13.9465Z" fill="black"/>
</svg>
